# xmcd
#
# Track frame offsets:
#	150
#	16939
#	33334
#	49572
#	62823
#	81452
#	92352
#	111819
#	132000
#	148254
#
# Disc length: 2214 seconds
#
# Revision: 0
# Processed by: cddbd v1.4PL0 Copyright (c) Steve Scherf et al.
# Submitted via: dBpowerAMP V4.0
#
DISCID=7e08a40a
DTITLE=Stephen Faulkner - A cheval donné on r'garde pas la bride
DYEAR=1900
DGENRE=
TTITLE0=À cheval donné on r'garde pas la bride
TTITLE1=Banjo la guitare
TTITLE2=Sans dessus dessous
TTITLE3=J'suis fauché
TTITLE4=Willie m'a dit
TTITLE5=Fernez les honky tonks
TTITLE6=Doris
TTITLE7=Mon p'tit bonhomme de chemin
TTITLE8=La nuit est jeune
TTITLE9=Le grand ménage de printemps
EXTD=
EXTT0=
EXTT1=
EXTT2=
EXTT3=
EXTT4=
EXTT5=
EXTT6=
EXTT7=
EXTT8=
EXTT9=
PLAYORDER=
